<?xml version="1.0" encoding="UTF-8"?>
<svg id="Capa_2" data-name="Capa 2" xmlns="http://www.w3.org/2000/svg" xmlns:xlink="http://www.w3.org/1999/xlink" viewBox="0 0 273.67 273.67">
  <defs>
    <style>
      .cls-1 {
        stroke: #09090b;
        stroke-miterlimit: 10;
        stroke-width: .34px;
      }

      .cls-1, .cls-2 {
        fill: none;
      }

      .cls-3 {
        clip-path: url(#clippath);
      }
    </style>
    <clipPath id="clippath">
      <circle class="cls-2" cx="136.83" cy="136.83" r="136.83"/>
    </clipPath>
  </defs>
  <g id="OBJECTS">
    <g class="cls-3">
      <g>
        <path class="cls-1" d="m199.58,208.21c-35.43,3.01-72.29,27.25-108,19.78-36.27-7.58-52.15-41.58-93.2-35.89-26.89,3.73-51.68,15.05-79.04,16.18-32.75,1.34-65.88-.07-98.66-.07"/>
        <path class="cls-1" d="m199.58,197.44c-35.87,3.45-72.04,28.93-108.4,21.69-17.88-3.56-30.28-15.61-45.39-24.84-17.18-10.49-32.27-12.19-51.96-8.75-25.23,4.41-48.69,11.67-74.52,12.03-32.85.45-65.77-.13-98.63-.13"/>
        <path class="cls-1" d="m199.58,186.67c-36.19,3.79-71.85,30.52-108.69,23.27-18.2-3.58-30.6-15.84-46.1-24.97-18.1-10.66-34-11.07-54.27-6.84-56.3,11.75-112.41,8.55-169.84,8.55"/>
        <path class="cls-1" d="m199.58,175.9c-36.41,3.91-71.76,31.77-108.9,24.21-18.35-3.73-30.44-16.3-46.08-25.46-18.69-10.94-35.35-10.22-55.96-5.21-54.1,13.15-112.47,6.45-167.96,6.45"/>
        <path class="cls-1" d="m199.58,165.14c-36.35,3.96-71.88,32.08-108.93,24.19-18.24-3.88-30.21-16.52-45.83-25.58-18.83-10.92-35.92-9.81-56.51-4.47-53.2,13.79-112.82,5.86-167.63,5.86"/>
        <path class="cls-1" d="m199.58,154.37c-35.89,4-72.03,29.46-108.48,22.23-17.68-3.5-30.55-14.85-46.2-22.86-18.48-9.46-35.05-9.11-55.01-4.67-54.38,12.1-113.62,5.3-169.21,5.3"/>
        <path class="cls-1" d="m199.58,143.6c-35.61,3.33-71.88,24.76-107.84,18.59-16.86-2.89-30.31-12.45-45.73-19.09-17.95-7.72-33.83-7.52-52.8-3.93-55.87,10.58-115.77,4.42-172.52,4.42"/>
        <path class="cls-1" d="m199.58,132.83c-35.48,2.27-71.45,18.8-107.09,13.97-15.94-2.17-29.72-9.62-44.79-14.7-17.22-5.81-32.4-5.47-50.19-2.64-57.56,9.16-118.65,3.38-176.83,3.38"/>
        <path class="cls-1" d="m199.58,122.07c-35.38,1.1-70.88,12.41-106.31,9.08-32.35-3.04-57.78-15.71-91.18-11.36-59.33,7.72-121.65,2.28-181.41,2.28"/>
        <path class="cls-1" d="m199.58,111.3c-35.22.14-70.35,6.47-105.58,4.65-30.14-1.56-57.3-8.91-87.79-5.92-61.04,6-124.23,1.27-185.53,1.27"/>
        <path class="cls-1" d="m199.58,294.35c-31.18.53-72.93,12.95-103.07,3.97-22.14-6.59-31.36-32.43-56-33.75-31.75-1.69-60.03,22.86-91.38,25.93-42.19,4.12-86.07,3.23-128.45,3.85"/>
        <path class="cls-1" d="m199.58,283.58c-30.43,1.15-74.06,16.94-103.3,7.05-22.88-7.75-30.68-37.07-56.52-38.92-34.05-2.44-65.59,25.55-99.24,29.04-39.23,4.06-80.4,2.48-119.83,2.84"/>
        <path class="cls-1" d="m199.58,272.81c-30.19,1.75-74.75,20.52-103.73,10.12-24.01-8.62-31.45-41.11-58.74-43.37-35.78-2.96-69.69,27.68-105.09,31.43-36.37,3.85-74.77,1.7-111.34,1.82"/>
        <path class="cls-1" d="m199.58,262.04c-30.62,2.19-74.77,23.2-104.34,12.76-25.54-9.02-33.91-44.03-62.81-46.39-36.7-3-71.19,28.9-107.5,32.7-34.03,3.56-70.05.97-104.25.94"/>
        <path class="cls-1" d="m199.58,251.28c-31.77,2.33-74.07,24.43-105.12,14.51-27.49-8.78-38.22-45.29-68.9-47.3-36.39-2.39-69.07,28.89-105.03,32.45-32.64,3.24-67.07.39-99.86.34"/>
        <path class="cls-1" d="m199.58,240.51c-33.12,2.17-73.34,24.28-106.03,15.14-29.57-8.27-42.96-44.59-75.98-44.99-34.47-.41-63.75,26.66-97.89,29.68-32.48,2.88-66.4.17-99,.17"/>
        <path class="cls-1" d="m199.58,229.74c-34.11,2.27-72.91,24.68-106.84,16.2-31.81-7.95-46.49-43.34-82.3-41.69-31.77,1.46-59.2,22.52-90.9,25.39-32.38,2.93-66.34.1-98.85.1"/>
        <path class="cls-1" d="m199.58,218.97c-34.86,2.58-72.57,25.75-107.49,17.85-34.06-7.7-49.62-42.36-88.11-38.62-29.17,2.83-55.15,18.76-84.56,20.76-32.57,2.21-66.08.01-98.73.01"/>
        <path class="cls-1" d="m-179.32,391.26c126.22,2.73,252.61,0,378.9,0V89.76H-168.5c0,52.16.19,104.33-.08,156.49-.27,52.3,4.04,104.15.08,156.47"/>
        <path class="cls-1" d="m-27.76,89.76c-2.45,28.36-17.28,56.18-14.96,84.82,1.63,20.01,12.34,34.36,22.44,50.77,13.91,22.6,27.43,48.55,24.35,75.99-3.87,34.56-18.04,69.9-31.84,101.39"/>
        <path class="cls-1" d="m-16.93,89.76c-3.18,27.82-21.85,55.73-18.61,83.97,2.37,20.62,16.39,31.24,27.87,46.66,41.11,55.23,8.84,124.46-9.26,182.33"/>
        <path class="cls-1" d="m-6.11,89.76c-3.82,27.38-26.67,56.52-21.32,84.78,3.72,19.63,19.82,28.59,32.01,42.6,43.73,50.23.59,130.78-10.7,185.57"/>
        <path class="cls-1" d="m4.72,89.76c-4.09,27.1-28.86,54.35-23.47,82.58,3.93,20.57,21.61,28.73,35.04,42.52,20.05,20.58,22.01,49.73,15.49,76.53-9.11,37.42-22.5,72.72-27.06,111.33"/>
        <path class="cls-1" d="m15.54,89.76c-2.57,27.1-22.74,50.17-19.11,78.12,2.78,21.36,17.44,31.75,30.88,46.95,19.34,21.89,21.38,48.99,14.74,76.56-9.05,37.56-23.05,72.32-26.51,111.32"/>
        <path class="cls-1" d="m26.37,89.76c-.32,26.33-14.09,49.2-12.16,75.97,1.54,21.45,11.28,34.99,23.17,52.32,38.03,55.44-5.54,124.98-11.01,184.67"/>
        <path class="cls-1" d="m37.19,89.76c.61,26.49-8.94,51.33-8.49,78.08.35,21.21,7.89,37.64,17.95,55.98,31.37,57.15-4.52,118.81-9.46,178.9"/>
        <path class="cls-1" d="m48.02,89.76c.53,28.02-7.35,55.07-7.14,83.25.16,21.07,5.99,39.12,14.54,58.24,25.17,56.31-3.67,113.04-7.39,171.47"/>
        <path class="cls-1" d="m58.85,89.76c-.27,53.05-13.68,98.01,5.07,149.72,19.59,54.02-2.85,107.7-5.07,163.24"/>
        <path class="cls-1" d="m69.67,89.76c-1.73,55.2-12.67,103.63,2.77,157.87,14.6,51.3-1.95,102.76-2.77,155.09"/>
        <path class="cls-1" d="m80.5,89.76c-2.7,56.97-10.82,108.69.74,165.07,10.03,48.95-.95,98.36-.74,147.89"/>
        <path class="cls-1" d="m91.32,89.76c-2.58,57.7-7.59,112.94-.74,170.43,5.65,47.39.11,94.92.74,142.53"/>
        <path class="cls-1" d="m102.15,89.76c-1.43,104.4-.55,208.57,0,312.96"/>
        <path class="cls-1" d="m112.97,89.76c0,104.36,0,208.61,0,312.96"/>
        <path class="cls-1" d="m123.8,89.76c0,104.35,0,208.62,0,312.96"/>
        <path class="cls-1" d="m134.63,89.76c0,104.34,0,208.62,0,312.96"/>
        <path class="cls-1" d="m145.45,89.76c0,104.33,0,208.63,0,312.96"/>
        <path class="cls-1" d="m156.28,89.76c0,104.33,0,208.63,0,312.96"/>
        <path class="cls-1" d="m167.1,89.76c0,104.32,0,208.64,0,312.96"/>
        <path class="cls-1" d="m177.93,89.76c0,104.32,0,208.64,0,312.96"/>
        <path class="cls-1" d="m188.75,89.76c0,104.32,0,208.64,0,312.96H-179.32V100.53c126.42,0,252.58-1.19,378.9,0"/>
      </g>
    </g>
  </g>
</svg>