<?xml version="1.0" encoding="UTF-8"?>
<svg id="Capa_2" data-name="Capa 2" xmlns="http://www.w3.org/2000/svg" viewBox="0 0 340.64 339.72">
  <g id="Capa_1-2" data-name="Capa 1">
    <g>
      <path d="m253.79,79.95c1.12.81,2.25,1.03,3.39.68,1.13-.35,2.16-.91,3.09-1.66l28.81-23.31c.93-.75,1.67-1.65,2.22-2.69.55-1.04.56-2.17.04-3.41l10.59,13.09c1.5,1.86,2.74,3.81,3.7,5.84.96,2.03,1.52,4.07,1.66,6.11.14,2.04-.2,4.03-1.02,5.98-.83,1.94-2.28,3.75-4.35,5.43-2,1.62-4.07,2.6-6.2,2.93-2.13.33-4.21.19-6.24-.41-2.03-.61-3.95-1.59-5.77-2.96-1.82-1.37-3.45-2.95-4.9-4.74l-5.29-6.54-10.41,8.42c-.93.75-1.65,1.65-2.17,2.69-.52,1.04-.53,2.16-.04,3.36l-7.12-8.8Zm41.94-23.64l-21.56,17.45,5.03,6.22c2.69,3.33,5.78,5.17,9.28,5.54,3.49.37,6.9-.79,10.23-3.48,3.36-2.72,5.22-5.81,5.59-9.27.37-3.46-.81-6.87-3.53-10.23l-5.03-6.22Z"/>
      <path d="m331.89,117.1c1.06,3.19,1.46,6.39,1.19,9.6s-1.1,6.22-2.5,9.01c-1.4,2.79-3.31,5.25-5.72,7.39-2.42,2.14-5.22,3.73-8.41,4.79-3.19,1.06-6.39,1.46-9.6,1.19-3.21-.27-6.22-1.1-9.01-2.5-2.79-1.4-5.26-3.31-7.39-5.72-2.14-2.42-3.73-5.22-4.79-8.4-1.06-3.19-1.46-6.39-1.19-9.6.26-3.21,1.1-6.22,2.5-9.01,1.4-2.79,3.31-5.26,5.72-7.39,2.42-2.14,5.22-3.73,8.41-4.79,3.19-1.06,6.39-1.46,9.6-1.19s6.22,1.1,9.01,2.5c2.79,1.4,5.25,3.31,7.39,5.72,2.14,2.42,3.73,5.22,4.79,8.41Zm-45.16,16.39c.91,2.75,2.37,4.96,4.38,6.62s4.29,2.87,6.84,3.62c2.55.75,5.22,1.08,8,.98,2.78-.1,5.37-.55,7.77-1.35,2.66-.88,5.25-2.23,7.75-4.03,2.5-1.8,4.61-3.91,6.33-6.32,1.72-2.41,2.9-5.05,3.55-7.91.65-2.86.48-5.77-.5-8.74-.9-2.71-2.36-4.9-4.37-6.58-2.01-1.68-4.3-2.9-6.85-3.65-2.55-.75-5.21-1.08-7.96-.99-2.76.09-5.34.54-7.74,1.33-2.62.87-5.18,2.22-7.67,4.04-2.5,1.82-4.61,3.96-6.34,6.4-1.73,2.44-2.94,5.08-3.62,7.93-.68,2.84-.53,5.73.44,8.65Z"/>
      <path d="m292.38,157.03c.36,1.35,1.06,2.26,2.1,2.75,1.04.48,2.18.75,3.42.8l37.09,1.53c1.19.05,2.33-.13,3.41-.55,1.08-.42,1.82-1.26,2.25-2.53l-.67,16.34c-.1,2.34-.46,4.62-1.08,6.83-.62,2.21-1.55,4.16-2.8,5.86-1.24,1.7-2.82,3.04-4.72,4.02-1.91.98-4.19,1.42-6.86,1.31-1.93-.08-3.67-.47-5.23-1.18-1.56-.71-2.91-1.65-4.06-2.83-1.15-1.18-2.1-2.56-2.87-4.16-.76-1.6-1.29-3.3-1.58-5.11l-15.71,9.16c-.95.56-1.77,1.27-2.47,2.14-.7.87-1.28,1.8-1.74,2.79l.32-7.72,19.46-11.35.38-9.31-13.44-.55c-1.2-.05-2.32.15-3.37.59-1.05.44-1.81,1.27-2.28,2.5l.47-11.31Zm19.39,8.81l-.33,8.07c-.09,2.11.17,4.03.76,5.76.6,1.73,1.47,3.23,2.61,4.49,1.14,1.27,2.55,2.26,4.23,2.97,1.67.71,3.57,1.11,5.68,1.2,4.32.18,7.76-.91,10.32-3.27,2.56-2.36,3.93-5.7,4.11-10.02l.33-8.07-27.71-1.14Z"/>
      <path d="m334.74,215.4l-12.62,32.55-7.98-1.17c2.33-.28,4.43-1.08,6.3-2.41,1.87-1.32,3.24-3.1,4.1-5.33l2.17-5.6-38.86-15.06c-1.12-.43-2.26-.63-3.43-.59-1.17.04-2.19.58-3.04,1.63l4.09-10.55c-.1,1.39.27,2.48,1.1,3.28.83.79,1.82,1.41,2.98,1.86l38.83,15.13,2.12-5.47c.9-2.32,1.09-4.56.58-6.73-.52-2.17-1.55-4.18-3.11-6.02l6.77,4.48Z"/>
      <path d="m276.81,240.16l29.07,23.08c.97.77,1.99,1.3,3.05,1.59,1.06.29,2.17.04,3.33-.75l-18.71,23.56-7.59-3.65c5.49,1.01,9.92-.62,13.29-4.87l7.38-9.29-17.62-13.99-5.06,6.38c-.92,1.15-1.5,2.39-1.76,3.71-.26,1.32.03,2.64.87,3.95l-6.97-5.54c1.44.55,2.78.53,4.02-.07,1.24-.6,2.3-1.46,3.19-2.58l5.06-6.38-14.54-11.54c-.94-.74-1.97-1.26-3.1-1.54-1.13-.28-2.24-.06-3.34.65l7.04-8.86c-.5,1.3-.48,2.45.08,3.45.56,1,1.32,1.89,2.29,2.66Z"/>
      <path d="m260.37,314.04c-2.84,1.8-5.85,2.96-9.03,3.48-3.18.52-6.3.44-9.35-.25-3.05-.68-5.9-1.94-8.56-3.77-2.66-1.83-4.88-4.16-6.68-7-1.8-2.84-2.96-5.85-3.48-9.03s-.44-6.3.25-9.35,1.94-5.9,3.77-8.55c1.83-2.66,4.16-4.88,7-6.68,2.84-1.8,5.85-2.96,9.03-3.48s6.3-.44,9.35.25c3.05.68,5.9,1.94,8.56,3.77,2.66,1.83,4.88,4.16,6.68,7,1.8,2.84,2.96,5.85,3.48,9.03.52,3.18.44,6.3-.25,9.34s-1.94,5.9-3.77,8.56c-1.83,2.66-4.16,4.88-7,6.68Zm-26.81-39.86c-2.45,1.55-4.23,3.5-5.36,5.85-1.13,2.35-1.75,4.85-1.86,7.51-.11,2.66.21,5.32.98,8,.77,2.67,1.83,5.08,3.18,7.21,1.5,2.37,3.43,4.55,5.78,6.55,2.35,1.99,4.91,3.53,7.67,4.62,2.76,1.08,5.6,1.6,8.53,1.54,2.93-.06,5.72-.93,8.36-2.6,2.41-1.53,4.19-3.47,5.33-5.83,1.15-2.36,1.78-4.87,1.89-7.53.11-2.66-.21-5.31-.96-7.97-.75-2.65-1.81-5.05-3.16-7.18-1.48-2.33-3.4-4.49-5.77-6.47-2.37-1.98-4.95-3.52-7.74-4.61-2.79-1.09-5.64-1.62-8.57-1.6-2.92.03-5.69.87-8.29,2.52Z"/>
      <path d="m211.52,334.64c1.21-.7,1.91-1.59,2.11-2.68s.16-2.23-.12-3.44l-9.39-40.96-12.11,2.77c-2.69.62-4.78,1.83-6.28,3.63-1.5,1.81-2.64,3.98-3.43,6.52v-8.7s29.44-6.75,29.44-6.75c-1.21.7-1.91,1.62-2.1,2.75-.19,1.13-.15,2.3.13,3.51l8.29,36.18c.28,1.21.74,2.26,1.39,3.15.65.89,1.67,1.39,3.07,1.49l-11.03,2.53Z"/>
      <path d="m168.1,339.72c1.33-.44,2.2-1.16,2.62-2.18.42-1.02.62-2.15.6-3.39l-.6-37.12c-.02-1.24-.27-2.39-.75-3.44-.48-1.05-1.36-1.77-2.66-2.17l11.31-.18c-1.33.44-2.2,1.19-2.62,2.25-.42,1.06-.62,2.22-.6,3.46l.6,37.12c.02,1.24.26,2.37.71,3.37.45,1,1.35,1.7,2.69,2.1l-11.31.18Z"/>
      <path d="m125.46,333.9c-3.24-.86-6.14-2.29-8.68-4.28-2.54-1.99-4.59-4.33-6.16-7.03-1.56-2.7-2.57-5.65-3.03-8.84-.46-3.19-.25-6.41.61-9.66.87-3.25,2.29-6.14,4.28-8.68,1.99-2.54,4.33-4.59,7.03-6.16,2.7-1.56,5.65-2.58,8.84-3.03,3.19-.46,6.41-.25,9.66.61,3.25.87,6.14,2.29,8.68,4.28,2.54,1.99,4.59,4.33,6.16,7.03,1.56,2.7,2.58,5.65,3.03,8.84.46,3.19.25,6.41-.61,9.66-.86,3.24-2.29,6.14-4.28,8.68-1.99,2.54-4.33,4.59-7.03,6.16-2.7,1.56-5.65,2.58-8.84,3.03s-6.41.25-9.66-.61Zm11.11-46.74c-2.8-.75-5.44-.74-7.93.03-2.49.76-4.75,2.01-6.78,3.73-2.03,1.72-3.77,3.77-5.21,6.14-1.44,2.38-2.49,4.79-3.14,7.23-.72,2.71-1.02,5.61-.89,8.69.13,3.08.73,6,1.8,8.76,1.07,2.76,2.62,5.2,4.66,7.31,2.03,2.11,4.56,3.57,7.58,4.38,2.76.74,5.39.72,7.9-.04,2.51-.76,4.78-2,6.81-3.72,2.03-1.72,3.76-3.76,5.2-6.11,1.44-2.36,2.48-4.75,3.13-7.2.71-2.67.99-5.54.84-8.63-.15-3.09-.77-6.03-1.86-8.82-1.09-2.79-2.63-5.25-4.64-7.38-2-2.13-4.49-3.59-7.47-4.38Z"/>
      <path d="m87.84,260.82c-1.13-.79-2.27-1-3.4-.63-1.13.37-2.15.94-3.07,1.7l-28.51,23.67c-.92.76-1.65,1.67-2.19,2.71-.54,1.04-.54,2.18,0,3.41l-10.75-12.96c-1.53-1.84-2.78-3.77-3.77-5.79-.99-2.02-1.57-4.05-1.74-6.09-.17-2.04.15-4.04.95-5.99.8-1.95,2.23-3.78,4.28-5.48,1.98-1.65,4.04-2.65,6.16-3,2.12-.36,4.2-.25,6.24.33,2.04.58,3.97,1.54,5.81,2.89s3.49,2.9,4.96,4.67l5.38,6.48,10.3-8.55c.92-.76,1.63-1.67,2.14-2.72.51-1.05.5-2.17,0-3.36l7.23,8.71Zm-41.64,24.16l21.34-17.71-5.11-6.16c-2.73-3.29-5.85-5.1-9.35-5.42-3.5-.33-6.89.88-10.18,3.61-3.33,2.76-5.15,5.88-5.47,9.34-.32,3.46.9,6.86,3.66,10.19l5.11,6.16Z"/>
      <path d="m9.28,224.68c-1.1-3.17-1.54-6.37-1.31-9.59.22-3.22,1.02-6.23,2.38-9.04s3.24-5.3,5.63-7.46c2.39-2.17,5.17-3.8,8.34-4.9,3.17-1.1,6.37-1.54,9.59-1.31,3.22.22,6.23,1.02,9.04,2.38,2.81,1.36,5.3,3.24,7.46,5.63,2.17,2.39,3.8,5.17,4.9,8.34s1.54,6.37,1.31,9.58c-.22,3.22-1.02,6.23-2.38,9.04-1.36,2.81-3.24,5.3-5.63,7.46-2.39,2.17-5.17,3.8-8.34,4.9-3.17,1.1-6.37,1.54-9.59,1.31-3.22-.22-6.23-1.02-9.04-2.38-2.81-1.36-5.3-3.24-7.46-5.63-2.17-2.39-3.8-5.17-4.9-8.34Zm44.95-16.97c-.95-2.74-2.44-4.92-4.46-6.56-2.03-1.63-4.32-2.81-6.88-3.53-2.56-.72-5.23-1.01-8.01-.88-2.78.13-5.36.62-7.75,1.45-2.65.92-5.22,2.29-7.7,4.13-2.48,1.83-4.56,3.97-6.25,6.4-1.69,2.44-2.84,5.09-3.45,7.95-.61,2.87-.41,5.78.62,8.73.93,2.7,2.42,4.87,4.45,6.53s4.33,2.84,6.89,3.56c2.56.72,5.22,1.01,7.98.89,2.76-.13,5.33-.61,7.72-1.43,2.61-.9,5.15-2.28,7.62-4.14,2.47-1.85,4.56-4.01,6.26-6.48,1.7-2.46,2.87-5.12,3.52-7.97.64-2.85.46-5.73-.55-8.65Z"/>
      <path d="m48.28,184.22c-.38-1.34-1.08-2.25-2.13-2.72-1.04-.47-2.19-.72-3.43-.75l-37.11-1.07c-1.19-.03-2.33.16-3.4.59-1.07.43-1.81,1.28-2.21,2.56l.47-16.35c.07-2.34.4-4.62.99-6.84.59-2.21,1.5-4.18,2.72-5.89,1.22-1.71,2.78-3.07,4.67-4.08,1.89-1,4.17-1.47,6.84-1.39,1.93.06,3.68.43,5.25,1.12,1.57.69,2.93,1.62,4.1,2.78,1.16,1.16,2.14,2.54,2.92,4.12.78,1.59,1.33,3.28,1.65,5.09l15.59-9.35c.94-.57,1.75-1.29,2.44-2.17.69-.88,1.26-1.82,1.7-2.82l-.22,7.73-19.32,11.59-.27,9.31,13.45.39c1.2.03,2.32-.17,3.37-.63,1.05-.45,1.8-1.29,2.25-2.52l-.33,11.31Zm-19.49-8.57l.23-8.07c.06-2.11-.22-4.03-.83-5.75-.62-1.72-1.51-3.21-2.67-4.46-1.16-1.25-2.58-2.23-4.26-2.92-1.68-.69-3.58-1.07-5.7-1.13-4.32-.12-7.75,1.01-10.28,3.4-2.53,2.39-3.86,5.75-3.98,10.07l-.23,8.07,27.73.8Z"/>
      <path d="m5.19,126.41l12.21-32.71,8,1.07c-2.33.31-4.41,1.14-6.27,2.49-1.85,1.35-3.2,3.14-4.03,5.38l-2.1,5.62,39.05,14.57c1.12.42,2.27.6,3.44.55,1.17-.05,2.18-.61,3.02-1.67l-3.96,10.6c.08-1.39-.3-2.48-1.14-3.26-.84-.78-1.84-1.39-3-1.82l-39.02-14.63-2.05,5.49c-.87,2.33-1.03,4.58-.49,6.74.54,2.17,1.6,4.16,3.18,5.98l-6.83-4.39Z"/>
      <path d="m62.81,100.92l-29.36-22.72c-.98-.76-2.01-1.28-3.08-1.55-1.07-.27-2.17,0-3.32.79l18.41-23.79,7.63,3.55c-5.5-.94-9.91.74-13.23,5.03l-7.26,9.39,17.79,13.77,4.98-6.44c.9-1.16,1.47-2.41,1.71-3.73.24-1.33-.07-2.64-.92-3.94l7.04,5.45c-1.45-.54-2.78-.5-4.02.12-1.23.62-2.29,1.49-3.16,2.62l-4.98,6.44,14.68,11.36c.95.73,1.99,1.23,3.12,1.5,1.13.27,2.24.03,3.33-.7l-6.93,8.95c.49-1.31.45-2.46-.12-3.45-.57-.99-1.35-1.87-2.33-2.63Z"/>
      <path d="m78.34,26.82c2.81-1.83,5.81-3.03,8.99-3.59,3.18-.56,6.29-.52,9.35.13,3.06.65,5.92,1.87,8.6,3.66,2.68,1.8,4.94,4.1,6.77,6.91,1.83,2.81,3.03,5.81,3.59,8.99.56,3.18.52,6.29-.13,9.35-.65,3.06-1.87,5.92-3.66,8.6-1.8,2.68-4.1,4.94-6.91,6.77-2.81,1.83-5.81,3.03-8.99,3.59-3.18.56-6.29.52-9.35-.13-3.06-.65-5.92-1.87-8.6-3.66-2.68-1.8-4.93-4.1-6.77-6.91-1.83-2.81-3.03-5.81-3.59-8.99-.56-3.18-.52-6.29.13-9.35.65-3.06,1.87-5.92,3.66-8.6,1.8-2.68,4.1-4.93,6.92-6.77Zm27.31,39.53c2.43-1.58,4.19-3.55,5.29-5.91s1.69-4.87,1.77-7.53c.08-2.66-.28-5.32-1.08-7.98-.8-2.66-1.89-5.05-3.27-7.17-1.53-2.35-3.49-4.51-5.86-6.47-2.38-1.96-4.95-3.47-7.72-4.52-2.77-1.05-5.62-1.53-8.55-1.43-2.93.1-5.7,1-8.33,2.7-2.39,1.56-4.14,3.52-5.26,5.9-1.12,2.37-1.71,4.89-1.79,7.55-.08,2.66.27,5.31,1.06,7.95.79,2.64,1.87,5.03,3.25,7.15,1.51,2.31,3.46,4.45,5.85,6.4,2.4,1.95,5,3.46,7.8,4.51,2.8,1.06,5.66,1.55,8.59,1.49,2.92-.06,5.67-.94,8.26-2.62Z"/>
      <path d="m126.93,5.62c-1.2.72-1.89,1.62-2.08,2.7-.19,1.09-.13,2.23.16,3.44l9.9,40.84,12.07-2.93c2.68-.65,4.76-1.89,6.23-3.71,1.47-1.82,2.59-4.01,3.34-6.56l.12,8.7-29.37,7.12c1.2-.72,1.89-1.64,2.06-2.77.18-1.13.12-2.3-.18-3.51l-8.74-36.08c-.29-1.21-.77-2.25-1.43-3.13-.66-.88-1.69-1.37-3.09-1.45l11-2.67Z"/>
      <path d="m170.28,0c-1.32.45-2.19,1.19-2.6,2.21-.41,1.02-.6,2.16-.56,3.4l1.03,37.11c.03,1.24.3,2.39.79,3.43.49,1.05,1.38,1.76,2.68,2.13l-11.31.31c1.32-.45,2.19-1.21,2.59-2.28.41-1.07.59-2.23.56-3.47l-1.03-37.11c-.03-1.24-.28-2.36-.75-3.36-.46-1-1.37-1.69-2.71-2.06l11.31-.31Z"/>
      <path d="m212.96,5.28c3.25.82,6.17,2.21,8.73,4.17,2.57,1.96,4.65,4.27,6.25,6.96,1.6,2.68,2.65,5.62,3.15,8.8.5,3.19.33,6.41-.49,9.66-.82,3.26-2.21,6.17-4.17,8.73-1.96,2.57-4.27,4.65-6.96,6.25s-5.62,2.65-8.8,3.15c-3.19.5-6.41.33-9.66-.49-3.26-.82-6.17-2.21-8.73-4.17-2.57-1.95-4.65-4.27-6.25-6.96-1.6-2.68-2.65-5.62-3.15-8.8-.5-3.19-.33-6.41.49-9.66.82-3.25,2.21-6.17,4.17-8.73,1.95-2.57,4.27-4.65,6.96-6.25,2.68-1.6,5.62-2.65,8.8-3.15,3.19-.5,6.41-.34,9.66.49Zm-10.51,46.88c2.81.71,5.45.67,7.93-.13,2.48-.8,4.72-2.07,6.73-3.81,2.01-1.75,3.72-3.82,5.13-6.21,1.41-2.39,2.43-4.82,3.05-7.27.69-2.72.95-5.62.78-8.7-.17-3.08-.81-5.99-1.92-8.74-1.11-2.75-2.69-5.17-4.75-7.25-2.06-2.09-4.6-3.51-7.64-4.28-2.77-.7-5.4-.65-7.9.14-2.5.79-4.76,2.06-6.76,3.8-2.01,1.75-3.72,3.81-5.12,6.18-1.41,2.37-2.42,4.79-3.04,7.24-.68,2.68-.92,5.56-.73,8.64.19,3.09.85,6.02,1.97,8.79,1.12,2.78,2.7,5.22,4.73,7.32,2.03,2.1,4.54,3.53,7.53,4.29Z"/>
    </g>
  </g>
</svg>