<svg width="570" height="570" viewBox="0 0 570 570" fill="none" xmlns="http://www.w3.org/2000/svg">
<g clip-path="url(#clip0_3532_8)">
<path d="M266.354 0.445239C265.13 0.556556 261.234 0.946167 257.727 1.22446C176.855 8.51574 101.104 52.1521 53.1262 119.221C26.41 156.512 9.32285 198.813 2.86645 243.618C0.584445 259.258 0.306152 263.878 0.306152 285.083C0.306152 306.289 0.584445 310.909 2.86645 326.549C18.3395 433.469 94.4249 523.302 197.616 556.586C216.095 562.542 235.575 566.605 257.727 569.054C266.354 570 303.646 570 312.273 569.054C350.51 564.824 382.904 555.362 414.852 539.054C419.75 536.549 420.696 535.881 420.028 535.325C419.583 534.991 398.711 506.994 373.664 473.154L328.135 411.651L271.085 327.217C239.694 280.798 213.868 242.839 213.646 242.839C213.423 242.783 213.2 280.297 213.089 326.104C212.922 406.308 212.866 409.536 211.865 411.429C210.417 414.156 209.304 415.269 206.967 416.493C205.186 417.384 203.627 417.551 195.223 417.551H185.594L183.033 415.937C181.364 414.879 180.139 413.488 179.304 411.874L178.135 409.369L178.247 297.774L178.414 186.122L180.139 183.952C181.03 182.783 182.922 181.28 184.258 180.557C186.54 179.443 187.43 179.332 197.059 179.332C208.414 179.332 210.306 179.777 213.256 183.006C214.091 183.896 244.981 230.427 281.939 286.475C318.896 342.523 369.434 419.054 394.258 456.623L439.341 524.917L441.623 523.414C461.827 510.278 483.2 491.577 500.121 472.096C536.132 430.742 559.341 380.315 567.134 326.549C569.416 310.909 569.694 306.289 569.694 285.083C569.694 263.878 569.416 259.258 567.134 243.618C551.661 136.698 475.575 46.8645 372.384 13.5807C354.184 7.68086 334.814 3.61778 313.108 1.1688C307.764 0.612215 270.974 -3.00236e-05 266.354 0.445239ZM382.904 172.653C385.575 173.989 387.746 176.549 388.525 179.221C388.97 180.668 389.082 211.614 388.97 281.354L388.803 381.429L371.16 354.378L353.46 327.328V254.583C353.46 207.551 353.683 181.113 354.017 179.833C354.907 176.716 356.855 174.267 359.527 172.82C361.809 171.651 362.644 171.54 371.382 171.54C379.62 171.54 381.067 171.651 382.904 172.653Z" fill="white"/>
<path d="M436.558 526.141C434.61 527.365 433.998 528.2 435.723 527.254C436.948 526.531 438.952 525.028 438.618 524.972C438.451 524.972 437.504 525.529 436.558 526.141ZM432.718 528.646C431.716 529.425 431.716 529.481 432.94 528.868C433.608 528.534 434.165 528.145 434.165 528.033C434.165 527.588 433.887 527.699 432.718 528.646ZM429.935 530.315C428.933 531.095 428.933 531.15 430.157 530.538C430.825 530.204 431.382 529.814 431.382 529.703C431.382 529.258 431.104 529.369 429.935 530.315ZM427.152 531.985C426.15 532.764 426.15 532.82 427.375 532.208C428.042 531.874 428.599 531.484 428.599 531.373C428.599 530.928 428.321 531.039 427.152 531.985ZM422.922 534.211C420.807 535.325 420.918 535.77 423.033 534.712C423.979 534.212 424.703 533.711 424.703 533.599C424.703 533.21 424.647 533.265 422.922 534.211Z" fill="white"/>
</g>
<defs>
<clipPath id="clip0_3532_8">
<rect width="570" height="570" fill="white"/>
</clipPath>
</defs>
</svg>
